<svg enable-background="new 0 0 76.00 76.00" height="76" viewBox="0 0 76 76" width="76" xmlns="http://www.w3.org/2000/svg"><path d="m26 36c1.0445 0 2.0356.2288 2.9259.639l4.0741-7.639h-2v-2h6v2h-2l-1.6 3h10.0615l.5385-1h-3v-2h6v2h-1l-1.3462 2.5h.3462l1.8543 3.245c.9457-.4766 2.0143-.745 3.1457-.745 3.866 0 7 3.134 7 7s-3.134 7-7 7c-3.5265 0-6.4439-2.6077-6.9291-6h-4.0709-1-1l-5.0769-9.2308-1.4972 2.8073c1.5711 1.2836 2.5741 3.2364 2.5741 5.4235 0 3.866-3.134 7-7 7s-7-3.134-7-7 3.134-7 7-7zm14.0769 6h2.994c.2435-1.7026 1.0997-3.2075 2.3381-4.2843l-1.5575-2.7256zm2.3077-8h-8.8846l4.4894 8.1626zm-16.3846 4c-2.7614 0-5 2.2386-5 5 0 2.7615 2.2386 5 5 5s5-2.2385 5-5c0-1.4192-.5914-2.7004-1.5411-3.6105l-2.4589 4.6105h-2l2.9822-5.5917c-.6078-.2627-1.278-.4083-1.9822-.4083zm24 0c-.7702 0-1.4997.1742-2.1513.4852l3.1513 5.5148h-.5-1.5-3.9c.4632 2.2823 2.481 4 4.9 4 2.7614 0 5-2.2386 5-5s-2.2386-5-5-5zm-4.9 4h2.7571l-1.4283-2.4995c-.6617.6751-1.1335 1.5371-1.3288 2.4995z" stroke-linejoin="round"/></svg>