<svg height="24" viewBox="0 0 24 24" width="24" xmlns="http://www.w3.org/2000/svg"><path d="m20.772 10.156-1.368-4.105c-.409-1.227-1.552-2.051-2.845-2.051h-9.118c-1.293 0-2.436.824-2.845 2.051l-1.368 4.105c-.72.303-1.228 1.015-1.228 1.844v5c0 .753.423 1.402 1.039 1.743-.013.066-.039.126-.039.195v2.062c0 .553.447 1 1 1h1c.553 0 1-.447 1-1v-2h12v2c0 .553.447 1 1 1h1c.553 0 1-.447 1-1v-2.062c0-.069-.026-.13-.039-.195.616-.341 1.039-.99 1.039-1.743v-5c0-.829-.508-1.541-1.228-1.844zm-16.772 6.844v-5h16l.002 5zm3.441-11h9.117c.431 0 .813.274.949.684l1.106 3.316h-13.226l1.105-3.316c.137-.41.519-.684.949-.684z"/><circle cx="6.5" cy="14.5" r="1.5"/><circle cx="17.5" cy="14.5" r="1.5"/></svg>